<?xml version="1.0" encoding="UTF-8"?>
<svg width="1200px" height="636px" viewBox="0 0 1200 636" version="1.1" xmlns="http://www.w3.org/2000/svg" xmlns:xlink="http://www.w3.org/1999/xlink">
    <title>opengraphImage</title>
    <defs>
        <radialGradient cx="49.999%" cy="49.9995%" fx="49.999%" fy="49.9995%" r="129.99957%" gradientTransform="translate(0.499990,0.499995),scale(0.525000,1.000000),rotate(180.000000),translate(-0.499990,-0.499995)" id="radialGradient-1">
            <stop stop-color="#EAEAEA" offset="0%"></stop>
            <stop stop-color="#FFFFFF" stop-opacity="0.8" offset="100%"></stop>
        </radialGradient>
        <radialGradient cx="49.999%" cy="49.9995%" fx="49.999%" fy="49.9995%" r="129.99957%" gradientTransform="translate(0.499990,0.499995),scale(0.525000,1.000000),rotate(180.000000),translate(-0.499990,-0.499995)" id="radialGradient-2">
            <stop stop-color="#A6CCFA" offset="0%"></stop>
            <stop stop-color="#6E9CD4" offset="100%"></stop>
        </radialGradient>
    </defs>
    <g id="Page-1" stroke="none" stroke-width="1" fill="none" fill-rule="evenodd">
        <g id="opengraphImage">
            <polygon id="Gold" fill="url(#radialGradient-1)" fill-rule="nonzero" points="0 636 1200 636 1200 6 1.2308238e-15 6"></polygon>
            <polygon id="Gold" fill="url(#radialGradient-2)" fill-rule="nonzero" points="0 630 1200 630 1200 0 1.2308238e-15 8.56584159e-16"></polygon>
            <g id="Sun" transform="translate(353.000000, 91.000000)" fill-rule="nonzero">
                <path d="M314,225 L0,225 C0,225 70.2879332,221 156.996086,221 C243.708153,221 314,225 314,225" id="Fill-25" fill="#A6D4D1"></path>
                <path d="M314,225 L0,225 C0,225 70.2879332,228 156.996086,228 C243.708153,228 314,225 314,225" id="Fill-26" fill="#DEF0EE"></path>
                <path d="M305.836629,129.731114 C315.528069,58.1974093 263.596206,0 190.06818,0 C116.551905,0 48.8528452,58.1974093 39.1614047,129.731114 C34.0649763,167.360572 46.0402122,201.281206 69.2150552,225 L249.975698,225 C279.582775,201.281206 300.7402,167.360572 305.836629,129.731114" id="Fill-27" fill="#90CBC9"></path>
                <path d="M293,129.731114 C293,58.1974093 233.120618,0 159.501961,0 C85.8872273,0 26,58.1974093 26,129.731114 C26,167.360572 42.5867499,201.281206 69.0102387,225 L249.993684,225 C276.421095,201.281206 293,167.360572 293,129.731114" id="Fill-28" fill="#FFFFFE"></path>
                <path d="M274,129.759149 C274,68.5870749 222.965116,19 160,19 C97.0388053,19 46,68.5870749 46,129.759149 C46,170.276357 68.405463,205.692048 101.819526,225 L218.184395,225 C251.598457,205.692048 274,170.276357 274,129.759149" id="Fill-29" fill="#F8CC24"></path>
                <path d="M58.644007,78.7930416 C50.5807072,94.0293681 46,111.300237 46,129.627172 C46,131.426269 46.0509838,133.21581 46.1372643,135 C107.447365,93.7832202 134.939452,109.646383 160,129.627172 C148.548232,100.113502 132.884409,72.973784 58.644007,78.7930416" id="Fill-30" fill="#FCEB24"></path>
                <path d="M101.331986,123.802779 C86.4417655,128.967284 69.6215481,141.139294 51,159.897247 C56.5092644,178.824129 67.0404205,195.675926 81.1235513,209 C87.6387537,183.680454 95.9630848,164.941143 106.209615,153.205534 C121.302583,135.014481 140.649342,132.324175 160,129.623215 C141.865825,122.519071 123.723852,115.411123 101.331986,123.802779" id="Fill-31" fill="#FCEB24"></path>
                <path d="M160,130 C130.148825,140.924804 102.692339,155.858094 107.564157,225 L155.434388,225 C126.179922,176.130456 141.341053,152.083345 160,130" id="Fill-33" fill="#FCEB24"></path>
                <path d="M166.06752,72.4109061 C160.730214,57.7932754 148.148016,41.28419 128.757508,23 C109.190007,28.4098974 91.7700142,38.7501306 78,52.5697679 C104.17522,58.9667275 123.542129,67.1372608 135.675947,77.198866 C154.480413,92.0147512 157.261162,111.005462 160.05371,130 C167.396931,112.193841 174.744084,94.3918911 166.06752,72.4109061" id="Fill-34" fill="#FCEB24"></path>
                <path d="M273.862735,124 C212.548714,165.218961 185.064469,149.348991 160,129.371534 C171.451768,158.88267 187.119512,186.023573 261.359914,180.207884 C269.419293,164.96707 274,147.695447 274,129.371534 C274,127.568536 273.952937,125.780446 273.862735,124" id="Fill-35" fill="#FCEB24"></path>
                <path d="M218.665915,135.198436 C233.559503,130.033972 250.37522,117.860158 269,99.1042584 C263.490932,80.175627 252.956255,63.3258693 238.877527,50 C232.362557,75.3193416 224.034624,94.0604026 213.784562,105.794016 C198.692135,123.988726 179.346067,126.680532 160,129.379948 C178.137425,136.48023 196.270952,143.588121 218.665915,135.198436" id="Fill-36" fill="#FCEB24"></path>
                <path d="M205.50927,92.4905385 C212.306906,78.5083459 215.383608,58.218946 214.961928,32.0027647 C197.325555,22.3809598 177.639351,17.7165367 158,18.013315 C171.755354,40.4997148 179.458822,59.5691535 180.719958,75.0004797 C183.23442,98.3691935 171.489853,113.682496 159.745286,129 C177.740866,121.476651 195.744257,113.960559 205.50927,92.4905385" id="Fill-37" fill="#FCEB24"></path>
                <path d="M242,206.887895 C215.825166,200.533683 196.454608,192.418277 184.324902,182.432599 C165.520712,167.720125 162.732138,148.858162 159.943565,130 C152.604385,147.679598 145.257339,165.359577 153.929842,187.18524 C158.138268,198.638707 166.881568,211.265417 179.900155,225 L218.236161,225 C226.975527,219.989299 234.967604,213.895048 242,206.887895" id="Fill-32" fill="#FCEB24"></path>
            </g>
            <g id="LargeCloud" transform="translate(429.000000, 210.265161)" fill-rule="nonzero">
                <path d="M8.04847009,255.580314 C6.40600488,206.441126 46.709006,160.461399 98.064889,152.84997 C101.967278,152.275523 105.797241,152.024202 109.57933,151.916493 C109.537594,151.210402 109.309269,150.564149 109.285945,149.858057 C108.476988,125.288463 128.634627,102.286632 154.312568,98.4809178 C163.026963,97.1884106 171.160725,98.433047 178.281757,101.412993 C198.924278,50.6462038 247.541492,10.1835652 305.418133,1.63865977 C383.998674,-9.99390017 449.727966,41.5507867 452.20885,116.731591 C452.509599,125.503881 451.849178,134.2283 450.45959,142.797141 C461.481783,131.846738 475.95708,124.067761 492.026967,121.686199 C527.8224,116.384529 557.750125,139.853098 558.889295,174.104524 C559.164264,182.350238 557.708389,190.464307 554.897293,198.111638 C560.027234,194.605116 565.823739,192.044038 572.183686,191.110561 C592.4248,188.10668 609.333103,201.390776 609.981254,220.742472 C610.622037,240.118105 594.755921,258.225165 574.520949,261.205111 C561.681978,263.096001 396.292611,287.569853 264.060665,307.125 L29.3870135,307.125 C16.6806184,293.876807 8.7199413,276.116809 8.04847009,255.580314" id="Fill-23" fill="#A6D4D1"></path>
                <path d="M1.09758464,255.580314 C-6.69357146,206.441126 27.8253742,160.461399 78.2371486,152.84997 C82.0615414,152.275523 85.8491134,152.024202 89.6244123,151.916493 C89.4808133,151.210402 89.1862514,150.564149 89.0733363,149.858057 C85.1888042,125.288463 102.448891,102.286632 127.654778,98.4809178 C136.200748,97.1884106 144.488978,98.433047 151.979435,101.412993 C166.260766,50.6462038 209.787162,10.1835652 266.581107,1.63865977 C343.697352,-9.99390017 415.863733,41.5507867 427.789798,116.731591 C429.180377,125.503881 429.611172,134.2283 429.300653,142.797141 C438.948777,131.846738 452.456883,124.067761 468.223296,121.686199 C503.342409,116.384529 536.213038,139.853098 541.642794,174.104524 C542.948685,182.350238 542.505611,190.464307 540.647418,198.111638 C545.339541,194.605116 550.829436,192.044038 557.06187,191.110561 C576.916552,188.10668 595.4948,201.390776 598.569288,220.742472 C601.631503,240.118105 588.038708,258.225165 568.185252,261.205111 C555.587833,263.096001 393.2954,287.569853 263.537303,307.125 L28.9042059,307.125 C14.5455521,293.876807 4.35126357,276.116809 1.09758464,255.580314" id="clouss" fill="#FFFFFE"></path>
            </g>
            <g id="Small-Clouds" transform="translate(155.500447, 199.721587)" fill-rule="nonzero">
                <path d="M821.658391,57.150863 L700.545561,57.150863 C700.545561,57.150863 727.656959,55.0885895 761.101976,55.0885895 C794.544559,55.0885895 821.658391,57.150863 821.658391,57.150863" id="Fill-9" fill="#A6D4D1"></path>
                <path d="M700.545561,57.150863 C700.545561,57.150863 727.656959,58.5272941 761.101976,58.5272941 C794.542125,58.5272941 821.658391,57.150863 821.658391,57.150863 L700.545561,57.150863 Z" id="Fill-10" fill="#DEF0EE"></path>
                <path d="M707.344101,50.6745174 C698.0311,49.1343385 693.211512,40.3061942 696.602262,30.9630749 C700.002749,21.6152092 710.430584,15.2836262 719.879897,16.8261783 C720.595533,16.9448361 721.272222,17.1180766 721.936741,17.3174218 C721.98299,17.1797787 721.992726,17.0468819 722.043843,16.9139851 C723.791552,12.2364926 729.049284,9.07070099 733.781243,9.84435027 C735.385338,10.1030243 736.692469,10.8102251 737.690464,11.7808463 C745.228981,3.42021406 756.834937,-1.38542899 767.525659,0.354095114 C782.011197,2.71301327 789.075057,16.2186501 783.349972,30.5192946 C782.685453,32.1876239 781.865149,33.789505 780.928007,35.3249375 C783.693185,33.9034164 786.779668,33.276903 789.70063,33.7586539 C796.197337,34.8289478 799.31303,40.9825439 796.669559,47.4968601 C796.03425,49.0655169 795.119015,50.5083964 794.016352,51.7851549 C795.167698,51.4220619 796.350687,51.2749261 797.499599,51.4647787 C800.440035,51.9560222 802.131758,54.3196867 801.883477,57.150863 L746.334078,57.150863 C728.56976,54.1962824 711.479697,51.3627329 707.344101,50.6745174" id="Fill-11" fill="#A6D4D1"></path>
                <path d="M706.058878,50.6745174 C696.473253,49.1343385 689.986283,40.3061942 691.563603,30.9630749 C693.148225,21.6152092 702.195905,15.2836262 711.783964,16.8261783 C712.514204,16.9448361 713.215235,17.1180766 713.904095,17.3174218 C713.923568,17.1797787 713.908964,17.0468819 713.930871,16.9139851 C714.721965,12.2364926 719.25189,9.07070099 724.044702,9.84435027 C725.670705,10.1030243 727.09224,10.8102251 728.270361,11.7808463 C733.94433,3.42021406 744.289405,-1.38542899 755.096965,0.354095114 C769.765063,2.71301327 779.696335,16.2186501 777.27437,30.5192946 C776.99201,32.1876239 776.541695,33.789505 775.962371,35.3249375 C778.374599,33.9034164 781.295561,33.276903 784.294416,33.7586539 C790.976117,34.8289478 795.501174,40.9825439 794.396077,47.4968601 C794.13319,49.0655169 793.5563,50.5083964 792.757904,51.7851549 C793.816753,51.4220619 794.968099,51.2749261 796.155957,51.4647787 C799.208362,51.9560222 801.457503,54.3196867 801.883477,57.150863 L746.334078,57.150863 C727.956358,54.1962824 710.323482,51.3627329 706.058878,50.6745174" id="Fill-12" fill="#FFFFFE"></path>
                <path d="M432.204067,41.6256695 L307.734565,41.6256695 C307.734565,41.6256695 335.595676,39.5064402 369.968099,39.5064402 C404.338087,39.5064402 432.204067,41.6256695 432.204067,41.6256695" id="Fill-13" fill="#A6D4D1"></path>
                <path d="M432.204067,41.6256695 L307.734565,41.6256695 C307.734565,41.6256695 335.595676,43.0376979 369.968099,43.0376979 C404.335653,43.0376979 432.204067,41.6256695 432.204067,41.6256695" id="Fill-14" fill="#DEF0EE"></path>
                <path d="M119.679124,50.1975128 L-3.91919855e-23,50.1975128 C-3.91919855e-23,50.1975128 26.7910653,48.0237009 59.8407789,48.0237009 C92.8870848,48.0237009 119.679124,50.1975128 119.679124,50.1975128" id="Fill-21" fill="#A6D4D1"></path>
                <path d="M119.679124,50.1975128 L-3.91919855e-23,50.1975128 C-3.91919855e-23,50.1975128 26.7910653,51.649885 59.8407789,51.649885 C92.8870848,51.649885 119.679124,50.1975128 119.679124,50.1975128" id="Fill-22" fill="#DEF0EE"></path>
                <path d="M22.0617841,69.5075754 C21.7360968,59.7633925 29.7278494,50.6457231 39.9112973,49.1363952 C40.6851088,49.0224836 41.444559,48.9726474 42.194516,48.9512889 C42.18624,48.8112727 42.1409651,48.6831222 42.1363402,48.5431059 C41.9759307,43.6710145 45.9730241,39.1098066 51.064748,38.3551427 C52.7927406,38.0988417 54.4055985,38.3456501 55.8176403,38.9365662 C59.910882,28.8696339 69.5512744,20.84599 81.0277348,19.1515558 C96.6096077,16.8448471 109.643184,27.0660346 110.135123,41.9742072 C110.194759,43.7137313 110.063803,45.4437628 109.788259,47.1429433 C111.973869,44.9715046 114.844201,43.4289524 118.030727,42.9566942 C125.128666,41.9053856 131.063087,46.5591466 131.288975,53.3511221 C131.343499,54.9862273 131.054811,56.5952279 130.497394,58.1116752 C131.514619,57.4163402 132.664018,56.9084845 133.925143,56.7233783 C137.938789,56.1277159 141.291566,58.7619202 141.420089,62.5993152 C141.547151,66.4414565 138.401031,70.0320431 134.388603,70.6229592 C131.842741,70.997918 99.0473941,75.8510242 72.8268901,79.7287628 L26.2930412,79.7287628 C23.7734679,77.1016779 22.1949313,73.5799129 22.0617841,69.5075754" id="Fill-23" fill="#A6D4D1"></path>
                <path d="M20.7782646,69.5075754 C19.2330756,59.7633925 26.0790808,50.6457231 36.0770475,49.1363952 C36.8355241,49.0224836 37.5866982,48.9726474 38.3354382,48.9512889 C38.3069588,48.8112727 38.2485395,48.6831222 38.2261455,48.5431059 C37.4557417,43.6710145 40.878866,39.1098066 45.8778494,38.3551427 C47.5727377,38.0988417 49.2165092,38.3456501 50.7020619,38.9365662 C53.5344215,28.8696339 62.1668385,20.84599 73.4305556,19.1515558 C88.7247137,16.8448471 103.037185,27.0660346 105.402434,41.9742072 C105.678222,43.7137313 105.76366,45.4437628 105.702076,47.1429433 C107.61555,44.9715046 110.294559,43.4289524 113.421449,42.9566942 C120.386483,41.9053856 126.905584,46.5591466 127.982446,53.3511221 C128.241438,54.9862273 128.153565,56.5952279 127.785037,58.1116752 C128.715607,57.4163402 129.804396,56.9084845 131.04045,56.7233783 C134.97815,56.1277159 138.6627,58.7619202 139.272451,62.5993152 C139.879768,66.4414565 137.183963,70.0320431 133.246506,70.6229592 C130.74811,70.997918 98.5612973,75.8510242 72.8268901,79.7287628 L26.2930412,79.7287628 C23.4453465,77.1016779 21.4235538,73.5799129 20.7782646,69.5075754" id="clouss" fill="#FFFFFE"></path>
            </g>
            <g id="Done" transform="translate(344.000000, 83.000000)"></g>
        </g>
    </g>
</svg>