<?xml version="1.0" encoding="UTF-8"?>
<svg width="1200px" height="630px" viewBox="0 0 1200 630" version="1.1" xmlns="http://www.w3.org/2000/svg" xmlns:xlink="http://www.w3.org/1999/xlink">
    <title>strapi-image_1200x630</title>
    <defs>
        <radialGradient cx="49.999%" cy="49.9995%" fx="49.999%" fy="49.9995%" r="109.884777%" gradientTransform="translate(0.499990,0.499995),scale(0.525000,1.000000),rotate(-177.532756),translate(-0.499990,-0.499995)" id="radialGradient-1">
            <stop stop-color="#32328C" offset="0%"></stop>
            <stop stop-color="#32328C" offset="100%"></stop>
        </radialGradient>
        <linearGradient x1="50%" y1="0%" x2="50%" y2="100%" id="linearGradient-2">
            <stop stop-color="#C09F52" offset="0%"></stop>
            <stop stop-color="#87703B" offset="100%"></stop>
        </linearGradient>
    </defs>
    <g id="Page-1" stroke="none" stroke-width="1" fill="none" fill-rule="evenodd">
        <g id="strapi-image_1200x630" fill-rule="nonzero">
            <polygon id="blue" fill="url(#radialGradient-1)" points="0 630 1200 630 1200 0 1.2308238e-15 8.56584159e-16"></polygon>
            <g id="goldenticket" transform="translate(449.000000, 198.000000)" fill="url(#linearGradient-2)">
                <path d="M303,117 L231.879167,216.867857 C228.231944,221.882143 223.883333,225.991072 218.833333,229.194643 C213.783334,232.398214 208.172222,234 202,234 L25.2499997,234 C18.3062503,234 12.3619792,231.545089 7.41718753,226.635268 C2.47239582,221.725446 0,215.823215 0,208.928572 L0,25.0714285 C0,18.1767854 2.47239582,12.2745538 7.41718753,7.36473231 C12.3619792,2.45491077 18.3062503,0 25.2499997,0 L202,0 C208.172222,0 213.783334,1.60178564 218.833333,4.80535693 C223.883333,8.00892821 228.231944,12.1178569 231.879167,17.1321431 L303,117 Z" id="Label"></path>
            </g>
        </g>
    </g>
</svg>