<?xml version="1.0" encoding="UTF-8"?>
<svg width="1200px" height="630px" viewBox="0 0 1200 630" version="1.1" xmlns="http://www.w3.org/2000/svg" xmlns:xlink="http://www.w3.org/1999/xlink">
    <title>strapi-image_1200x630</title>
    <defs>
        <radialGradient cx="49.999%" cy="49.9995%" fx="49.999%" fy="49.9995%" r="129.99957%" gradientTransform="translate(0.499990,0.499995),scale(0.525000,1.000000),rotate(180.000000),translate(-0.499990,-0.499995)" id="radialGradient-1">
            <stop stop-color="#C09F52" offset="0%"></stop>
            <stop stop-color="#A58438" offset="100%"></stop>
        </radialGradient>
        <radialGradient cx="49.999%" cy="49.9995%" fx="49.999%" fy="49.9995%" r="129.99957%" gradientTransform="translate(0.499990,0.499995),scale(0.525000,1.000000),rotate(180.000000),translate(-0.499990,-0.499995)" id="radialGradient-2">
            <stop stop-color="#24244F" offset="0%"></stop>
            <stop stop-color="#32328C" offset="100%"></stop>
        </radialGradient>
    </defs>
    <g id="Page-1" stroke="none" stroke-width="1" fill="none" fill-rule="evenodd">
        <g id="strapi-image_1200x630" fill-rule="nonzero">
            <polygon id="gold-" fill="url(#radialGradient-1)" points="0 630 1200 630 1200 0 1.2308238e-15 8.56584159e-16"></polygon>
            <polygon id="blue" fill="url(#radialGradient-2)" points="0 630 1200 630 1200 0 1.2308238e-15 8.56584159e-16"></polygon>
            <g id="javascript" transform="translate(439.000000, 168.000000)" fill="#C09F52">
                <path d="M132.552063,295 C128.551442,295 124.578224,293.963664 121.07083,291.969461 L84.5254369,270.604159 C79.0670561,267.589854 81.7304829,266.523754 83.5307621,265.909529 C90.808603,263.393099 92.2855444,262.824873 100.053872,258.468472 C100.870437,258.00848 101.939096,258.17083 102.774842,258.657881 L130.850429,275.10938 C131.864285,275.650548 133.302864,275.650548 134.242736,275.10938 L243.711767,212.712741 C244.725623,212.144515 245.383259,210.981004 245.383259,209.790435 L245.383259,85.0512733 C245.383259,83.8065876 244.725623,82.6971937 243.689846,82.0748508 L134.264657,19.7323284 C133.250801,19.1370438 131.908127,19.1370438 130.894272,19.7323284 L21.491004,82.0748508 C20.4305656,82.6701353 19.7564885,83.833646 19.7564885,85.024215 L19.7564885,209.763377 C19.7564885,210.953946 20.4141247,212.090398 21.4553821,212.658624 L51.4326336,229.759524 C67.7091304,237.795865 77.6558784,228.32543 77.6558784,218.800878 L77.6558784,95.6852192 C77.6558784,93.9264241 79.0533554,92.5735048 80.8344535,92.5735048 L94.6996174,92.5735048 C96.4259125,92.5735048 97.850791,93.9264241 97.850791,95.6852192 L97.850791,218.854995 C97.850791,240.285237 86.0133388,252.596803 65.4348051,252.596803 C59.1050564,252.596803 54.1179816,252.596803 40.1980147,245.832206 L11.4812326,229.48894 C4.37655467,225.395411 0.00572006325,217.88601 0,209.763377 L0,85.024215 C0,76.906699 4.38424155,69.3303508 11.4812326,65.3257096 L121.05987,2.90201195 C127.992452,-0.967337317 137.199359,-0.967337317 144.077138,2.90201195 L253.518767,65.352768 C260.622802,69.4337668 264.995169,76.9354962 265,85.0512733 L265,209.790435 C265,217.880893 260.588357,225.430182 253.518767,229.48894 L144.077138,291.912638 C140.568743,293.907387 136.589475,294.952749 132.541102,294.943177" id="Path"></path>
                <path d="M164.768085,208.872542 C117.01277,208.872542 107,187.112542 107,168.861695 C107,167.126102 108.409711,165.743051 110.160921,165.743051 L124.258028,165.743051 C125.815266,165.743051 127.126625,166.868475 127.372505,168.395254 C129.503463,182.654237 135.841697,189.846102 164.718909,189.846102 C187.722327,189.846102 197.502878,184.688136 197.502878,172.579661 C197.502878,165.610169 194.716241,160.430508 158.981715,156.959322 C129.093663,154.030508 110.625361,147.494915 110.625361,123.766102 C110.625361,101.908475 129.202943,88.8915254 160.320393,88.8915254 C195.26264,88.8915254 212.583504,100.932203 214.769102,126.80339 C214.842419,127.682805 214.541553,128.552535 213.939444,129.201731 C213.337335,129.850926 212.488957,130.220313 211.599985,130.220339 L197.420918,130.220339 C195.94564,130.220339 194.661601,129.189831 194.361081,127.779661 C190.946084,112.783051 182.695452,107.983051 160.265753,107.983051 C135.158697,107.983051 132.23546,116.661017 132.23546,123.169492 C132.23546,131.061017 135.677777,133.366102 169.554545,137.813559 C203.103473,142.233898 219.031018,148.471186 219.031018,171.874576 C219.031018,195.467797 199.196717,209 164.609629,209 M297.548623,76.4169492 L301.2095,76.4169492 C304.214697,76.4169492 304.788416,74.3288136 304.788416,73.1084746 C304.788416,69.9084746 302.575498,69.9084746 301.3461,69.9084746 L297.575943,69.9084746 L297.548623,76.4169492 Z M293.095467,66.1661017 L301.2095,66.1661017 C303.996137,66.1661017 309.460132,66.1661017 309.460132,72.3491525 C309.460132,76.6610169 306.673495,77.5559322 305.006976,78.0983051 C308.258053,78.3152542 308.476613,80.4305085 308.913732,83.4135593 C309.132292,85.2847458 309.487452,88.5118644 310.143131,89.5966102 L305.143576,89.5966102 C305.006976,88.5118644 304.242017,82.5457627 304.242017,82.220339 C303.914177,80.8915254 303.449738,80.240678 301.783219,80.240678 L297.657903,80.240678 L297.657903,89.6237288 L293.095467,89.6237288 L293.095467,66.1661017 Z M283.342237,77.8271186 C283.342237,87.5355932 291.237709,95.4 300.9363,95.4 C310.716851,95.4 318.612323,87.3728814 318.612323,77.8271186 C318.612323,68.0915254 310.607571,60.3627119 300.90898,60.3627119 C291.346989,60.3627119 283.314917,67.9830508 283.314917,77.8 M322,77.8813559 C322,89.379661 312.519969,98.7627119 300.96362,98.7627119 C289.489231,98.7627119 279.92724,89.4881356 279.92724,77.8813559 C279.92724,66.0576271 289.707791,57 300.96362,57 C312.301409,57 321.97268,66.0847458 321.97268,77.8813559" id="Shape"></path>
            </g>
        </g>
    </g>
</svg>