<?xml version="1.0" encoding="UTF-8"?>
<svg width="750px" height="250px" viewBox="0 0 750 250" version="1.1" xmlns="http://www.w3.org/2000/svg" xmlns:xlink="http://www.w3.org/1999/xlink">
    <title>opengraphImage</title>
    <defs>
        <radialGradient cx="49.999%" cy="49.9995%" fx="49.999%" fy="49.9995%" r="204.749323%" gradientTransform="translate(0.499990,0.499995),scale(0.333333,1.000000),rotate(180.000000),translate(-0.499990,-0.499995)" id="radialGradient-1">
            <stop stop-color="#A6CCFA" offset="0%"></stop>
            <stop stop-color="#6E9CD4" offset="100%"></stop>
        </radialGradient>
        <radialGradient cx="49.999%" cy="49.9995%" fx="49.999%" fy="49.9995%" r="204.749323%" gradientTransform="translate(0.499990,0.499995),scale(0.333333,1.000000),rotate(180.000000),translate(-0.499990,-0.499995)" id="radialGradient-2">
            <stop stop-color="#C09F52" offset="0%"></stop>
            <stop stop-color="#A58438" offset="100%"></stop>
        </radialGradient>
    </defs>
    <g id="Page-1" stroke="none" stroke-width="1" fill="none" fill-rule="evenodd">
        <g id="opengraphImage" fill-rule="nonzero">
            <polygon id="sky" fill="url(#radialGradient-1)" points="0 250 750 250 750 0 7.69264876e-16 3.39914349e-16"></polygon>
            <polygon id="gold" fill="url(#radialGradient-2)" points="0 250 750 250 750 0 7.69264876e-16 3.39914349e-16"></polygon>
            <g id="Gatsby" transform="translate(271.000000, 21.000000)">
                <circle id="Oval" fill="#A58438" cx="104.5" cy="104.5" r="104.5"></circle>
                <g id="Group" transform="translate(24.000000, 24.000000)" fill="#FFFFFF">
                    <path d="M23.8545455,140.145455 C8.2,124.490909 0,103.618182 0,83.4909091 L81.2545455,164 C60.3818182,163.254545 39.5090909,155.8 23.8545455,140.145455 Z" id="Path"></path>
                    <path d="M99.8909091,161.763636 L2.23636364,64.1090909 C10.4363636,27.5818182 43.2363636,0 82,0 C109.581818,0 133.436364,13.4181818 148.345455,33.5454545 L137.163636,43.2363636 C124.490909,26.0909091 104.363636,14.9090909 82,14.9090909 C52.9272727,14.9090909 28.3272727,33.5454545 18.6363636,59.6363636 L104.363636,145.363636 C125.981818,137.909091 142.381818,119.272727 147.6,96.9090909 L111.818182,96.9090909 L111.818182,82 L164,82 C164,120.763636 136.418182,153.563636 99.8909091,161.763636 Z" id="Path"></path>
                </g>
            </g>
        </g>
    </g>
</svg>