<?xml version="1.0" encoding="UTF-8"?>
<svg width="750px" height="250px" viewBox="0 0 750 250" version="1.1" xmlns="http://www.w3.org/2000/svg" xmlns:xlink="http://www.w3.org/1999/xlink">
    <title>opengraphImage</title>
    <defs>
        <radialGradient cx="49.999%" cy="49.9995%" fx="49.999%" fy="49.9995%" r="204.749323%" gradientTransform="translate(0.499990,0.499995),scale(0.333333,1.000000),rotate(180.000000),translate(-0.499990,-0.499995)" id="radialGradient-1">
            <stop stop-color="#A6CCFA" offset="0%"></stop>
            <stop stop-color="#6E9CD4" offset="100%"></stop>
        </radialGradient>
        <radialGradient cx="49.999%" cy="49.9995%" fx="49.999%" fy="49.9995%" r="204.749323%" gradientTransform="translate(0.499990,0.499995),scale(0.333333,1.000000),rotate(180.000000),translate(-0.499990,-0.499995)" id="radialGradient-2">
            <stop stop-color="#265874" offset="0%"></stop>
            <stop stop-color="#143B50" offset="99.9480988%"></stop>
        </radialGradient>
    </defs>
    <g id="Page-1" stroke="none" stroke-width="1" fill="none" fill-rule="evenodd">
        <g id="opengraphImage" fill-rule="nonzero">
            <polygon id="sky" fill="url(#radialGradient-1)" points="0 250 750 250 750 0 7.69264876e-16 3.39914349e-16"></polygon>
            <polygon id="gold" fill="url(#radialGradient-2)" points="0 250 750 250 750 0 7.69264876e-16 3.39914349e-16"></polygon>
            <g id="icon" transform="translate(262.000000, 17.000000)" fill="#FFFFFF">
                <path d="M0,113.142857 C0,101.828572 9.24545452,92.5714284 20.5454545,92.5714284 C31.8454545,92.5714284 41.0909091,101.828572 41.0909091,113.142857 C41.0909091,124.457143 31.8454545,133.714286 20.5454545,133.714286 C9.24545452,133.714286 0,124.457143 0,113.142857 Z M81.0518185,83.4171428 L127.587273,70.9714284 L119.574545,41.1428571 L73.0390911,53.5885714 C64.8209091,55.7485714 59.89,64.2857143 62.15,72.5142858 C64.41,80.7428572 72.8336363,85.6799998 81.0518185,83.4171428 L81.0518185,83.4171428 Z M200.318182,40.1142857 L226,10.2857143 L215.727273,0 L184.909091,30.8571428 L164.363636,72 L66.9781815,101.52 C58.5545455,103.577143 52.6990909,110.674286 51.5690909,118.8 L43.5563636,164.571429 L14.3818182,203.657143 L30.8181818,216 L61.6363636,174.857143 L73.3472726,142.56 L133.545455,123.428572 L184.909091,87.4285712 L200.318182,40.1142857 Z" id="diver"></path>
            </g>
        </g>
    </g>
</svg>