<?xml version="1.0" encoding="UTF-8"?>
<svg width="750px" height="250px" viewBox="0 0 750 250" version="1.1" xmlns="http://www.w3.org/2000/svg" xmlns:xlink="http://www.w3.org/1999/xlink">
    <title>opengraphImage</title>
    <defs>
        <radialGradient cx="49.999%" cy="49.9995%" fx="49.999%" fy="49.9995%" r="204.749323%" gradientTransform="translate(0.499990,0.499995),scale(0.333333,1.000000),rotate(180.000000),translate(-0.499990,-0.499995)" id="radialGradient-1">
            <stop stop-color="#6745D0" offset="0%"></stop>
            <stop stop-color="#32328C" offset="100%"></stop>
        </radialGradient>
    </defs>
    <g id="Page-1" stroke="none" stroke-width="1" fill="none" fill-rule="evenodd">
        <g id="opengraphImage" fill-rule="nonzero">
            <polygon id="darkblue" fill="url(#radialGradient-1)" points="0 250 750 250 750 0 7.69264876e-16 3.39914349e-16"></polygon>
            <g id="Small-Clouds" transform="translate(111.000000, 33.000000)">
                <path d="M597,42 L509,42 C509,42 528.699011,40 553,40 C577.29922,40 597,42 597,42" id="Fill-9" fill="#A6D4D1"></path>
                <path d="M509,41 C509,41 528.699011,42 553,42 C577.297451,42 597,41 597,41 L509,41 Z" id="Fill-10" fill="#DEF0EE"></path>
                <path d="M514.560011,37.2405528 C507.819752,36.1086798 504.331589,29.6209028 506.785635,22.7546721 C509.246728,15.8849533 516.793844,11.2318916 523.632758,12.3655086 C524.150697,12.4527099 524.640449,12.5800238 525.121393,12.726522 C525.154865,12.6253685 525.161912,12.527703 525.198908,12.4300376 C526.463807,8.99256214 530.269076,6.66603129 533.693818,7.23458386 C534.854777,7.42468266 535.80081,7.94440243 536.523106,8.65770909 C541.979086,2.51350518 550.378864,-1.01814766 558.116244,0.260223451 C568.600112,1.99378542 573.712561,11.9190379 569.569047,22.4285392 C569.088103,23.6545895 568.49441,24.8318071 567.816156,25.960192 C569.817446,24.9155203 572.051279,24.4550975 574.165317,24.8091347 C578.867291,25.5956906 581.122265,30.1179502 579.20906,34.9053018 C578.749257,36.058103 578.086858,37.118471 577.288809,38.056757 C578.122093,37.789921 578.978278,37.6817913 579.809799,37.8213134 C581.937932,38.1823269 583.162312,39.9193769 582.982619,42 L542.778897,42 C529.922022,39.8286875 517.553137,37.7463203 514.560011,37.2405528" id="Fill-11" fill="#A6D4D1"></path>
                <path d="M513.659945,37.2405528 C506.723649,36.1086798 502.029584,29.6209028 503.170956,22.7546721 C504.317611,15.8849533 510.864642,11.2318916 517.802699,12.3655086 C518.331111,12.4527099 518.838388,12.5800238 519.336856,12.726522 C519.350947,12.6253685 519.34038,12.527703 519.356232,12.4300376 C519.928679,8.99256214 523.206598,6.66603129 526.674745,7.23458386 C527.851344,7.42468266 528.879987,7.94440243 529.732493,8.65770909 C533.838258,2.51350518 541.324103,-1.01814766 549.144608,0.260223451 C559.758655,1.99378542 566.945066,11.9190379 565.192497,22.4285392 C564.988177,23.6545895 564.662323,24.8318071 564.243116,25.960192 C565.988638,24.9155203 568.102289,24.4550975 570.272303,24.8091347 C575.107278,25.5956906 578.381674,30.1179502 577.58201,34.9053018 C577.391781,36.058103 576.974335,37.118471 576.396604,38.056757 C577.162803,37.789921 577.995933,37.6817913 578.855484,37.8213134 C581.064248,38.1823269 582.691759,39.9193769 583,42 L542.803658,42 C529.505276,39.8286875 516.745874,37.7463203 513.659945,37.2405528" id="Fill-12" fill="#FFFFFE"></path>
                <path d="M87,36 L0,36 C0,36 19.4755994,34 43.5008846,34 C67.5236926,34 87,36 87,36" id="Fill-21" fill="#A6D4D1"></path>
                <path d="M87,36 L0,36 C0,36 19.4755994,37 43.5008846,37 C67.5236926,37 87,36 87,36" id="Fill-22" fill="#DEF0EE"></path>
                <path d="M15.0070048,50.6154947 C14.7696386,43.575611 20.5941587,36.9883648 28.0160222,35.8979201 C28.5799887,35.8156223 29.1334884,35.7796171 29.6800693,35.7641862 C29.6740376,35.6630287 29.6410406,35.5704437 29.6376699,35.4692861 C29.5207608,31.9493443 32.4339079,28.6540066 36.1448396,28.1087843 C37.4042289,27.9236144 38.5797061,28.1019261 39.6088253,28.5288455 C42.5920468,21.255785 49.6181226,15.4589398 57.9823548,14.2347612 C69.3386787,12.5682325 78.8377625,19.9527379 79.1962957,30.7234513 C79.2397594,31.9802059 79.1443165,33.2301025 78.9434955,34.4577101 C80.5364038,32.8889099 82.6283488,31.7744616 84.9507411,31.433269 C90.1238352,30.6737297 94.4489383,34.0359342 94.6135692,38.9429355 C94.6533072,40.1242506 94.4429067,41.2867058 94.036652,42.3822941 C94.7780223,41.8799352 95.6157231,41.5130245 96.5348516,41.3792908 C99.4600625,40.9489423 101.903621,42.8520769 101.997291,45.6244812 C102.089896,48.4003146 99.796952,50.9944071 96.8726288,51.4213265 C95.0171629,51.6922231 71.1153774,55.1984487 52.0054449,58 L18.0908142,58 C16.254508,56.102009 15.1040447,53.557638 15.0070048,50.6154947" id="Fill-23" fill="#A6D4D1"></path>
                <path d="M15.1575831,50.6154947 C14.0389864,43.575611 18.9949619,36.9883648 26.2327125,35.8979201 C26.7817906,35.8156223 27.3255822,35.7796171 27.8676118,35.7641862 C27.8469949,35.6630287 27.8047039,35.5704437 27.7884924,35.4692861 C27.2307799,31.9493443 29.7088558,28.6540066 33.3277311,28.1087843 C34.5546984,27.9236144 35.7446612,28.1019261 36.8200859,28.5288455 C38.870494,21.255785 45.1196928,15.4589398 53.2737482,14.2347612 C64.3455296,12.5682325 74.7066461,19.9527379 76.4189025,30.7234513 C76.6185516,31.9802059 76.680402,33.2301025 76.63582,34.4577101 C78.0210264,32.8889099 79.9604206,31.7744616 82.2240459,31.433269 C87.266189,30.6737297 91.9855113,34.0359342 92.7650757,38.9429355 C92.9525657,40.1242506 92.8889525,41.2867058 92.6221669,42.3822941 C93.2958272,41.8799352 94.0840258,41.5130245 94.9788328,41.3792908 C97.8294215,40.9489423 100.496749,42.8520769 100.938162,45.6244812 C101.377812,48.4003146 99.4262586,50.9944071 96.5758458,51.4213265 C94.7672014,51.6922231 71.4664514,55.1984487 52.8367414,58 L19.1498526,58 C17.088343,56.102009 15.6247223,53.557638 15.1575831,50.6154947" id="clouss" fill="#FFFFFE"></path>
            </g>
            <g id="settings_suggest_FILL0_wght400_GRAD0_opsz48" transform="translate(304.000000, 58.000000)" fill="#FFFFFF">
                <path d="M111.534829,46.23 L104.210153,30.485 L88.5619835,23.115 L104.210153,15.745 L111.534829,0 L118.859504,15.745 L134.507674,23.115 L118.859504,30.485 L111.534829,46.23 Z M125.5183,94.6375 L120.524203,84.085 L110.0366,79.06 L120.524203,74.035 L125.5183,63.4825 L130.512397,74.035 L141,79.06 L130.512397,84.085 L125.5183,94.6375 Z M38.4545455,134 L36.7898465,118.59 C35.2361275,118.366667 33.6269185,117.864167 31.9622196,117.0825 C30.2975207,116.300833 28.8547816,115.351667 27.6340024,114.235 L14.6493506,119.7625 L0,95.6425 L12.6517119,87.2675 C12.0968123,85.3691667 11.8193625,83.6941667 11.8193625,82.2425 C11.8193625,80.7908333 12.0968123,79.1158333 12.6517119,77.2175 L0,68.8425 L14.6493506,44.7225 L27.6340024,50.25 C28.8547816,49.1333333 30.2975207,48.1841667 31.9622196,47.4025 C33.6269185,46.6208333 35.2361275,46.1183333 36.7898465,45.895 L38.4545455,30.485 L66.4214876,30.485 L68.0861865,45.895 C69.6399055,46.1183333 71.2491145,46.6208333 72.9138135,47.4025 C74.5785124,48.1841667 76.0212515,49.1333333 77.2420307,50.25 L90.2266824,44.7225 L104.876033,68.8425 L92.2243211,77.2175 C92.7792208,79.1158333 93.0566706,80.7908333 93.0566706,82.2425 C93.0566706,83.6941667 92.7792208,85.3691667 92.2243211,87.2675 L104.876033,95.6425 L90.2266824,119.7625 L77.2420307,114.235 C76.0212515,115.351667 74.5785124,116.300833 72.9138135,117.0825 C71.2491145,117.864167 69.6399055,118.366667 68.0861865,118.59 L66.4214876,134 L38.4545455,134 Z M52.4380165,101.505 C57.987013,101.505 62.5649351,99.6904167 66.1717828,96.06125 C69.7786305,92.4320833 71.5820543,87.8258333 71.5820543,82.2425 C71.5820543,76.6591667 69.7786305,72.0529167 66.1717828,68.42375 C62.5649351,64.7945833 57.987013,62.98 52.4380165,62.98 C46.8890201,62.98 42.311098,64.7945833 38.7042503,68.42375 C35.0974026,72.0529167 33.2939787,76.6591667 33.2939787,82.2425 C33.2939787,87.8258333 35.0974026,92.4320833 38.7042503,96.06125 C42.311098,99.6904167 46.8890201,101.505 52.4380165,101.505 Z M52.4380165,91.455 C49.7744982,91.455 47.5826446,90.5895833 45.8624557,88.85875 C44.1422668,87.1279167 43.2821724,84.9225 43.2821724,82.2425 C43.2821724,79.5625 44.1422668,77.3570833 45.8624557,75.62625 C47.5826446,73.8954167 49.7744982,73.03 52.4380165,73.03 C55.1015348,73.03 57.2933884,73.8954167 59.0135773,75.62625 C60.7337662,77.3570833 61.5938607,79.5625 61.5938607,82.2425 C61.5938607,84.9225 60.7337662,87.1279167 59.0135773,88.85875 C57.2933884,90.5895833 55.1015348,91.455 52.4380165,91.455 Z M46.7780401,123.95 L58.0979929,123.95 L59.4297521,111.22 C62.64817,110.438333 65.5891381,109.321667 68.2526564,107.87 C70.9161747,106.418333 73.3577332,104.52 75.5773318,102.175 L86.3978749,107.0325 L91.8913813,98.3225 L81.5702479,90.9525 C82.7910272,88.1608333 83.4014168,85.2575 83.4014168,82.2425 C83.4014168,79.2275 82.7910272,76.3241667 81.5702479,73.5325 L91.8913813,66.1625 L86.3978749,57.4525 L75.5773318,62.31 C73.3577332,59.965 70.9161747,58.0666667 68.2526564,56.615 C65.5891381,55.1633333 62.64817,54.0466667 59.4297521,53.265 L58.0979929,40.535 L46.7780401,40.535 L45.446281,53.265 C42.227863,54.0466667 39.2868949,55.1633333 36.6233766,56.615 C33.9598583,58.0666667 31.5182999,59.965 29.2987013,62.31 L18.4781582,57.4525 L12.9846517,66.1625 L23.3057851,73.5325 C22.0850059,76.3241667 21.4746163,79.2275 21.4746163,82.2425 C21.4746163,85.2575 22.0850059,88.1608333 23.3057851,90.9525 L12.9846517,98.3225 L18.4781582,107.0325 L29.2987013,102.175 C31.5182999,104.52 33.9598583,106.418333 36.6233766,107.87 C39.2868949,109.321667 42.227863,110.438333 45.446281,111.22 L46.7780401,123.95 Z" id="Shape"></path>
            </g>
        </g>
    </g>
</svg>