<?xml version="1.0" encoding="UTF-8"?>
<svg width="512px" height="512px" viewBox="0 0 512 512" version="1.1" xmlns="http://www.w3.org/2000/svg" xmlns:xlink="http://www.w3.org/1999/xlink">
    <title>icon</title>
    <defs>
        <linearGradient x1="50%" y1="0.105574324%" x2="50%" y2="100%" id="linearGradient-1">
            <stop stop-color="#489FD8" offset="0%"></stop>
            <stop stop-color="#265874" offset="100%"></stop>
            <stop stop-color="#C09F52" offset="100%"></stop>
        </linearGradient>
    </defs>
    <g id="Page-1" stroke="none" stroke-width="1" fill="none" fill-rule="evenodd">
        <g id="icon" fill-rule="nonzero">
            <path d="M146.141456,0 L365.858544,0 C416.675112,0 435.102427,5.29105984 453.680205,15.2265641 C472.257983,25.1620684 486.837932,39.7420171 496.773436,58.3197949 C506.70894,76.8975727 512,95.3248882 512,146.141456 L512,365.858544 C512,416.675112 506.70894,435.102427 496.773436,453.680205 C486.837932,472.257983 472.257983,486.837932 453.680205,496.773436 C435.102427,506.70894 416.675112,512 365.858544,512 L146.141456,512 C95.3248882,512 76.8975727,506.70894 58.3197949,496.773436 C39.7420171,486.837932 25.1620684,472.257983 15.2265641,453.680205 C5.29105984,435.102427 0,416.675112 0,365.858544 L0,146.141456 C0,95.3248882 5.29105984,76.8975727 15.2265641,58.3197949 C25.1620684,39.7420171 39.7420171,25.1620684 58.3197949,15.2265641 C76.8975727,5.29105984 95.3248882,0 146.141456,0 Z" id="bluebackground" fill="url(#linearGradient-1)"></path>
            <g id="punk" transform="translate(123.000000, 86.000000)">
                <path d="M60.613515,171.703179 C62.4191186,179.826057 63.4220416,188.843984 63.4220416,198.338935 C63.4220416,234.051611 49.225376,263 31.7118764,263 C14.1983769,263 0,234.051611 0,198.338935 C0,156.467097 28.6996847,171.703179 60.613515,171.703179 Z M206.384773,171.703179 C204.582594,179.826057 203.577958,188.843984 203.577958,198.338935 C203.577958,234.051611 217.774624,263 235.289835,263 C252.803335,263 267,234.051611 267,198.338935 C267,156.467097 238.300315,171.703179 206.384773,171.703179 L206.384773,171.703179 Z" id="Fill-41" fill="#F49A6A"></path>
                <path d="M132.999152,340 C101.739111,339.991355 70.3383813,325.973332 49.9593044,298.768995 C15.0619798,252.179428 20.27599,192.502109 20.27599,141.003553 C20.27599,76.3843922 76.3433291,47.0532309 132.999152,48.0232702 C189.654978,47.0532309 245.724031,76.3843922 245.724031,141.003553 C245.724031,192.502109 250.938042,252.179428 216.039001,298.768995 C195.661641,325.973332 164.26091,339.991355 132.999152,340" id="Fill-52" fill="#FAB385"></path>
                <path d="M116.9309,157.138968 C114.237379,133.290823 110.205797,84.2727602 97.2601898,65.6273353 C95.6837489,53.1038954 94.4970683,41.0005396 94.0812081,30.1433763 C93.830648,23.5714265 93.9002478,16.7551598 98.2363301,11.6403233 C104.284573,4.50240183 116.6612,0.167973324 130.546407,0.00626715145 C143.533774,-0.146650643 160.122943,2.49689375 167.721527,8.14782144 C174.526671,13.2046547 173.092911,20.6747768 172.32383,30.7005595 C171.51647,41.248372 170.336749,52.7611485 168.920388,64.5885488 C152.738379,84.9143119 151.875339,132.900619 148.713758,156.711852 C148.414478,164.693458 121.611503,165.338526 116.9309,157.138968" id="Fill-56" fill="#246D96"></path>
                <path d="M123.371372,157.713926 L121.112441,84.585215 C120.343973,59.7012238 118.596247,29.2151685 117.06429,17.7716207 C116.010343,9.89333834 128.184673,11.4547684 133.796317,11.2483127 C139.61875,11.0383871 149.602199,9.4387887 148.971492,18.1480989 C148.000533,31.593747 148.644519,54.8868144 147.549078,89.3007338 L145.369815,157.713926 C145.220437,162.43465 123.495855,161.742416 123.371372,157.713926" id="Fill-65" fill="#489FD8"></path>
            </g>
        </g>
    </g>
</svg>